<?xml version="1.0" encoding="utf-8"?>
<!-- Generator: Adobe Illustrator 15.0.2, SVG Export Plug-In . SVG Version: 6.00 Build 0)  -->
<!DOCTYPE svg PUBLIC "-//W3C//DTD SVG 1.1//EN" "http://www.w3.org/Graphics/SVG/1.1/DTD/svg11.dtd">
<svg version="1.1" id="Layer_1" xmlns="http://www.w3.org/2000/svg" xmlns:xlink="http://www.w3.org/1999/xlink" x="0px" y="0px"
	 width="792px" height="612px" viewBox="0 0 792 612" enable-background="new 0 0 792 612" xml:space="preserve">
<rect x="8.5" y="116.5" fill="none" stroke="#000000" stroke-miterlimit="10" width="450" height="300"/>
<rect x="8.5" y="116.5" fill="#B9E5FB" stroke="#000000" stroke-miterlimit="10" width="350" height="200"/>
<rect x="8.5" y="116.5" fill="#6DCFF6" stroke="#000000" stroke-miterlimit="10" width="250" height="150"/>
<text transform="matrix(1 0 0 1 96.4087 191.5)" font-family="'MyriadPro-Regular'" font-size="12">Original Model</text>
<text transform="matrix(1 0 0 1 281.0386 286.4717)" font-family="'MyriadPro-Regular'" font-size="12">SUX Model</text>
<rect x="258.5" y="316.5" fill="#C7C8CA" stroke="#000000" stroke-miterlimit="10" width="100" height="100"/>
<rect x="358.5" y="316.5" fill="#C7C8CA" stroke="#000000" stroke-miterlimit="10" width="100" height="100"/>
<text transform="matrix(1 0 0 1 306.502 366.5)" font-family="'TimesNewRomanPSMT'" font-size="12">I</text>
<text transform="matrix(1 0 0 1 401.5039 366.5)" font-family="'TimesNewRomanPSMT'" font-size="12">-vI</text>
<rect x="486.5" y="61.5" fill="none" stroke="#000000" stroke-miterlimit="10" width="20" height="450"/>
<rect x="486.5" y="61.5" fill="#B9E5FB" stroke="#000000" stroke-miterlimit="10" width="20" height="350"/>
<rect x="486.5" y="61.5" fill="#6DCFF6" stroke="#000000" stroke-miterlimit="10" width="20" height="250"/>
<rect x="536.5" y="116.5" fill="none" stroke="#000000" stroke-miterlimit="10" width="20" height="300"/>
<rect x="536.5" y="116.5" fill="#B9E5FB" stroke="#000000" stroke-miterlimit="10" width="20" height="200"/>
<rect x="536.5" y="116.5" fill="#6DCFF6" stroke="#000000" stroke-miterlimit="10" width="20" height="150"/>
<text transform="matrix(1 0 0 1 464.917 266.5)" font-family="'TimesNewRomanPSMT'" font-size="24">X</text>
<text transform="matrix(1 0 0 1 513.1074 266.5)" font-family="'TimesNewRomanPSMT'" font-size="24">=</text>
<g>
	<g>
		<line fill="none" stroke="#000000" stroke-miterlimit="10" x1="8" y1="99.5" x2="257" y2="99.5"/>
		<g>
			<rect x="8" y="96" width="1" height="7"/>
		</g>
		<g>
			<rect x="257" y="96" width="1" height="7"/>
		</g>
	</g>
</g>
<text transform="matrix(1 0 0 1 88.1284 99.5)" font-family="'MyriadPro-Regular'" font-size="12">Original Reactions</text>
<g>
	<g>
		<line fill="none" stroke="#000000" stroke-miterlimit="10" x1="258" y1="99.5" x2="358" y2="99.5"/>
		<g>
			<rect x="258" y="96" width="1" height="7"/>
		</g>
		<g>
			<rect x="357" y="96" width="1" height="7"/>
		</g>
	</g>
</g>
<text transform="matrix(1 0 0 1 268.4287 99.5)" font-family="'MyriadPro-Regular'" font-size="12">Added Reactions</text>
<g>
	<g>
		<line fill="none" stroke="#000000" stroke-miterlimit="10" x1="358" y1="99.5" x2="458" y2="99.5"/>
		<g>
			<rect x="358" y="96" width="1" height="7"/>
		</g>
		<g>
			<rect x="457" y="96" width="1" height="7"/>
		</g>
	</g>
</g>
<text transform="matrix(1 0 0 1 384.1543 99.5)" font-family="'MyriadPro-Regular'" font-size="12">Dummies</text>
<rect x="8" y="317" fill="none" width="250" height="100"/>
<text transform="matrix(1 0 0 1 130 367)" font-family="'TimesNewRomanPSMT'" font-size="12">0</text>
<rect x="358" y="117" fill="none" width="100" height="200"/>
<text transform="matrix(1 0 0 1 405 217)" font-family="'TimesNewRomanPSMT'" font-size="12">0</text>
<rect x="8.5" y="416.5" fill="none" stroke="#000000" stroke-miterlimit="10" width="450" height="15"/>
<rect x="32.5" y="116.5" opacity="0.25" fill="#E49E86" stroke="#000000" stroke-miterlimit="10" width="15" height="150"/>
<g>
	<g>
		<line fill="none" stroke="#000000" stroke-miterlimit="10" x1="32.5" y1="267" x2="32.5" y2="268"/>
		<line fill="none" stroke="#000000" stroke-miterlimit="10" stroke-dasharray="2,4" x1="32.5" y1="272" x2="32.5" y2="429"/>
		<line fill="none" stroke="#000000" stroke-miterlimit="10" x1="32.5" y1="431" x2="32.5" y2="432"/>
	</g>
</g>
<g>
	<g>
		<line fill="none" stroke="#000000" stroke-miterlimit="10" x1="47.5" y1="267" x2="47.5" y2="268"/>
		<line fill="none" stroke="#000000" stroke-miterlimit="10" stroke-dasharray="2,4" x1="47.5" y1="272" x2="47.5" y2="429"/>
		<line fill="none" stroke="#000000" stroke-miterlimit="10" x1="47.5" y1="431" x2="47.5" y2="432"/>
	</g>
</g>
<text transform="matrix(0 -1 1 0 43.9521 232.8433)" font-family="'MyriadPro-Regular'" font-size="12">Objective function</text>
<text transform="matrix(1 0 0 1 16.1074 427.7207)" font-family="'TimesNewRomanPSMT'" font-size="12">0</text>
<text transform="matrix(1 0 0 1 228.3989 427.4844)" font-family="'TimesNewRomanPSMT'" font-size="12">0</text>
<text transform="matrix(1 0 0 1 37 427.7207)" font-family="'TimesNewRomanPSMT'" font-size="12">1</text>
<rect x="536.5" y="416.5" fill="none" stroke="#000000" stroke-miterlimit="10" width="20" height="20"/>
<text transform="matrix(1 0 0 1 481.1963 55.9136)" font-family="'MyriadPro-Regular'" font-size="12">Fluxes</text>
<text transform="matrix(1 0 0 1 522.917 61.5)"><tspan x="0" y="0" font-family="'MyriadPro-Regular'" font-size="12">Metabolite</tspan><tspan x="-0.834" y="14.4" font-family="'MyriadPro-Regular'" font-size="12">production</tspan></text>
<text transform="matrix(0 -1 1 0 499 490.8418)"><tspan x="0" y="0" font-family="'SymbolMT'" font-size="12">∈</tspan><tspan x="8.555" y="0" font-family="'TimesNewRomanPSMT'" font-size="12">{0,1}</tspan></text>
<text transform="matrix(1 0 0 1 541.4492 426.5)" font-family="'TimesNewRomanPSMT'" font-size="12">&gt;t</text>
<text transform="matrix(1 0 0 1 540.1162 364.333)" font-family="'TimesNewRomanPSMT'" font-size="12">&lt;0</text>
<text transform="matrix(1 0 0 1 538.9492 186.5)" font-family="'TimesNewRomanPSMT'" font-size="12">=0</text>
<text transform="matrix(1 0 0 1 540.1162 292.5)" font-family="'TimesNewRomanPSMT'" font-size="12">=0</text>
<text transform="matrix(1 0 0 1 572.9141 274)" font-family="'TimesNewRomanPSMT'" font-size="48">:</text>
<rect x="598.5" y="61.5" fill="none" stroke="#000000" stroke-miterlimit="10" width="20" height="450"/>
<rect x="598.5" y="61.5" fill="#B9E5FB" stroke="#000000" stroke-miterlimit="10" width="20" height="350"/>
<rect x="598.5" y="61.5" fill="#6DCFF6" stroke="#000000" stroke-miterlimit="10" width="20" height="250"/>
<text transform="matrix(1 0 0 1 593.1963 55.9136)" font-family="'MyriadPro-Regular'" font-size="12">Fluxes</text>
<text transform="matrix(0 -1 1 0 611 490.8418)"><tspan x="0" y="0" font-family="'SymbolMT'" font-size="12">∈</tspan><tspan x="8.555" y="0" font-family="'TimesNewRomanPSMT'" font-size="12">{0,1}</tspan></text>
<text transform="matrix(1 0 0 1 628.0469 268.5)" font-family="'TimesNewRomanPSMT'" font-size="24">•</text>
<rect x="644.5" y="61.5" fill="none" stroke="#000000" stroke-miterlimit="10" width="20" height="450"/>
<rect x="644.5" y="411.5" fill="none" stroke="#000000" stroke-miterlimit="10" width="20" height="100"/>
<text transform="matrix(1 0 0 1 651.5 266.5)" font-family="'TimesNewRomanPSMT'" font-size="12">0</text>
<text transform="matrix(0 -1 1 0 658.2852 490.4404)" font-family="'MyriadPro-Regular'" font-size="12">Penalties</text>
<text transform="matrix(1 0 0 1 673.1367 267)" font-family="'MyriadPro-Regular'" font-size="18">is minimized</text>
</svg>
